<svg width="15" height="8" viewBox="0 0 15 8" fill="none" xmlns="http://www.w3.org/2000/svg">
<path d="M11.7188 0.755859C12.0509 0.480827 12.5196 0.431718 12.9004 0.588867L13.0576 0.668945L13.0723 0.677734L13.0869 0.6875L13.1523 0.734375L13.1797 0.755859C13.5978 1.10219 13.6542 1.69569 13.29 2.10254L13.2773 2.11719L13.2637 2.12988L13.207 2.18359L13.1943 2.19629L13.1797 2.20801L7.74609 6.70996C7.36651 7.02412 6.80835 7.04343 6.40723 6.79688L6.39258 6.78809L6.37891 6.77832L6.31348 6.73145L6.29883 6.7207L6.28516 6.70996L0.851562 2.20801C0.632425 2.0264 0.500046 1.76602 0.5 1.48242C0.5 1.1987 0.632298 0.9375 0.851562 0.755859L0.924805 0.701172C1.25032 0.475392 1.67953 0.442889 2.0332 0.588867L2.19043 0.668945L2.20508 0.677734L2.21973 0.6875L2.28516 0.734375L2.3125 0.755859L7.01562 4.65137L11.7188 0.755859Z" fill="white" stroke="white"/>
</svg>
