<svg width="37" height="40" viewBox="0 0 37 40" fill="none" xmlns="http://www.w3.org/2000/svg">
<path opacity="0.4" d="M26.015 0H10.67C3.97833 0 0 4.26993 0 11.4324V27.9021C0 35.0646 3.97833 39.3345 10.6517 39.3345H25.9967C32.67 39.3345 36.6483 35.0646 36.6483 27.9021V11.4324C36.6667 4.26993 32.6883 0 26.015 0Z" fill="#C8C8C8"/>
<path d="M21.3904 13.6005H11.9487L12.5537 12.9511C13.0853 12.3805 13.0853 11.436 12.5537 10.8654C12.022 10.2947 11.142 10.2947 10.6103 10.8654L7.732 13.9547C7.20034 14.5253 7.20034 15.4698 7.732 16.0404L10.6103 19.1298C10.8853 19.425 11.2337 19.5627 11.582 19.5627C11.9303 19.5627 12.2787 19.425 12.5537 19.1298C13.0853 18.5592 13.0853 17.6147 12.5537 17.044L12.077 16.5324H21.3904C23.7371 16.5324 25.6621 18.5789 25.6621 21.1172C25.6621 23.6555 23.7552 25.702 21.3904 25.702H12.3703C11.6187 25.702 10.9953 26.371 10.9953 27.1777C10.9953 27.9845 11.6187 28.6535 12.3703 28.6535H21.3904C25.2588 28.6535 28.4121 25.2691 28.4121 21.1172C28.4121 16.9653 25.2588 13.6005 21.3904 13.6005Z" fill="#06406A"/>
</svg>
