<svg width="49" height="50" viewBox="2 5 45 41" fill="none" xmlns="http://www.w3.org/2000/svg">
<path opacity="0.4" d="M32.5109 5.05865H15.7709C8.47086 5.05865 4.13086 9.48907 4.13086 16.9207V34.0095C4.13086 41.4412 8.47086 45.8716 15.7509 45.8716H32.4909C39.7709 45.8716 44.1109 41.4412 44.1109 34.0095V16.9207C44.1309 9.48907 39.7909 5.05865 32.5109 5.05865Z" fill="#B8B4B4"/>
<path d="M27.9699 18.2888H17.6698L18.3298 17.6151C18.9098 17.023 18.9098 16.043 18.3298 15.4509C17.7498 14.8588 16.7898 14.8588 16.2098 15.4509L13.0698 18.6563C12.4898 19.2484 12.4898 20.2284 13.0698 20.8205L16.2098 24.026C16.5098 24.3322 16.8898 24.4751 17.2698 24.4751C17.6498 24.4751 18.0298 24.3322 18.3298 24.026C18.9098 23.4339 18.9098 22.4539 18.3298 21.8618L17.8098 21.3309H27.9699C30.5299 21.3309 32.6299 23.4543 32.6299 26.0881C32.6299 28.7218 30.5497 30.8451 27.9699 30.8451H18.1298C17.3098 30.8451 16.6298 31.5393 16.6298 32.3764C16.6298 33.2135 17.3098 33.9076 18.1298 33.9076H27.9699C32.1899 33.9076 35.6299 30.396 35.6299 26.0881C35.6299 21.7801 32.1899 18.2888 27.9699 18.2888Z" fill="#063E67"/>
</svg>
