<svg width="60" height="60" viewBox="0 0 60 60" fill="none" xmlns="http://www.w3.org/2000/svg">
<rect width="60" height="60" rx="30" fill="#063E67"/>
<path d="M30 7.5C17.5781 7.5 7.5 17.5781 7.5 30C7.5 42.4219 17.5781 52.5 30 52.5C42.4219 52.5 52.5 42.4219 52.5 30C52.5 17.5781 42.4219 7.5 30 7.5ZM29.2969 43.125C28.8333 43.125 28.3802 42.9875 27.9948 42.73C27.6093 42.4725 27.3089 42.1064 27.1315 41.6782C26.9541 41.2499 26.9077 40.7786 26.9982 40.324C27.0886 39.8694 27.3118 39.4517 27.6396 39.124C27.9674 38.7962 28.385 38.573 28.8396 38.4825C29.2943 38.3921 29.7655 38.4385 30.1938 38.6159C30.6221 38.7933 30.9881 39.0937 31.2456 39.4791C31.5032 39.8646 31.6406 40.3177 31.6406 40.7812C31.6406 41.4028 31.3937 41.999 30.9542 42.4385C30.5146 42.8781 29.9185 43.125 29.2969 43.125ZM33.2156 31.1719C31.316 32.4469 31.0547 33.6152 31.0547 34.6875C31.0547 35.1226 30.8818 35.5399 30.5742 35.8476C30.2665 36.1553 29.8492 36.3281 29.4141 36.3281C28.9789 36.3281 28.5616 36.1553 28.254 35.8476C27.9463 35.5399 27.7734 35.1226 27.7734 34.6875C27.7734 32.1199 28.9547 30.0785 31.3852 28.4461C33.6445 26.9297 34.9219 25.9687 34.9219 23.8559C34.9219 22.4191 34.1016 21.3281 32.4035 20.5207C32.0039 20.3309 31.1145 20.1457 30.0199 20.1586C28.6465 20.1762 27.5801 20.5043 26.7586 21.1652C25.2094 22.4121 25.0781 23.7691 25.0781 23.7891C25.0677 24.0045 25.015 24.2158 24.923 24.4109C24.8309 24.606 24.7014 24.781 24.5417 24.926C24.382 25.071 24.1953 25.1831 23.9923 25.256C23.7892 25.3288 23.5738 25.361 23.3584 25.3506C23.1429 25.3402 22.9317 25.2875 22.7366 25.1954C22.5415 25.1034 22.3665 24.9738 22.2215 24.8141C22.0765 24.6544 21.9643 24.4677 21.8915 24.2647C21.8186 24.0617 21.7865 23.8463 21.7969 23.6309C21.8098 23.3461 22.0078 20.7809 24.6996 18.6152C26.0953 17.4926 27.8707 16.909 29.973 16.8832C31.4613 16.8656 32.8594 17.1176 33.8074 17.5652C36.6445 18.907 38.2031 21.1441 38.2031 23.8559C38.2031 27.8203 35.5535 29.6004 33.2156 31.1719Z" fill="white"/>
</svg>
