<svg width="48" height="48" viewBox="0 0 48 48" fill="none" xmlns="http://www.w3.org/2000/svg">
<g clip-path="url(#clip0_680_80)">
<path d="M19.5601 19.0667C23.9783 19.0667 27.5601 15.4849 27.5601 11.0667C27.5601 6.64837 23.9783 3.06665 19.5601 3.06665C15.1418 3.06665 11.5601 6.64837 11.5601 11.0667C11.5601 15.4849 15.1418 19.0667 19.5601 19.0667Z" fill="white"/>
<path d="M21.9201 42.4266C21.4795 41.9908 21.1919 41.424 21.1006 40.811C21.0092 40.198 21.119 39.572 21.4134 39.0266L22.1201 37.6933L20.6667 37.2533C20.0741 37.0678 19.5581 36.694 19.1972 36.1887C18.8362 35.6834 18.65 35.0741 18.6667 34.4533V31.72C18.6656 31.1019 18.8634 30.4999 19.2307 30.0029C19.5981 29.5059 20.1156 29.1402 20.7067 28.96L22.1601 28.52L21.4667 27.1866C21.181 26.6487 21.0722 26.0344 21.156 25.4311C21.2398 24.8278 21.5119 24.2663 21.9334 23.8266C20.9077 23.6922 19.8746 23.6209 18.8401 23.6133C15.7845 23.5414 12.7507 24.1446 9.95507 25.3799C7.15942 26.6153 4.67082 28.4523 2.66675 30.76V41.0933C2.66675 41.4469 2.80722 41.7861 3.05727 42.0361C3.30732 42.2862 3.64646 42.4266 4.00008 42.4266H21.9201Z" fill="white"/>
<path d="M44.9335 31.28L42.2668 30.48C42.0821 29.8214 41.8226 29.1862 41.4935 28.5866L42.8268 26.1066C42.8784 26.0146 42.8972 25.9078 42.8803 25.8037C42.8633 25.6995 42.8116 25.6042 42.7335 25.5333L40.8002 23.5866C40.7257 23.5142 40.6308 23.4663 40.5282 23.4496C40.4257 23.4329 40.3205 23.4482 40.2268 23.4933L37.7602 24.8266C37.153 24.4968 36.5142 24.2288 35.8535 24.0266L35.0402 21.36C35.0044 21.2616 34.939 21.1768 34.8531 21.1171C34.7671 21.0574 34.6648 21.0258 34.5602 21.0266H31.7868C31.6829 21.0295 31.5823 21.0644 31.4988 21.1264C31.4154 21.1884 31.353 21.2746 31.3202 21.3733L30.5202 24.04C29.8466 24.2359 29.1979 24.5088 28.5868 24.8533L26.1735 23.52C26.0797 23.4701 25.9726 23.451 25.8673 23.4653C25.762 23.4797 25.6639 23.5268 25.5868 23.6L23.6268 25.52C23.5497 25.5943 23.4988 25.6918 23.482 25.7977C23.4651 25.9035 23.4832 26.012 23.5335 26.1066L24.8668 28.5333C24.5097 29.1355 24.2191 29.7749 24.0002 30.44L21.3335 31.2533C21.2326 31.2825 21.1441 31.3439 21.0815 31.4282C21.0189 31.5125 20.9856 31.615 20.9868 31.72V34.4533C20.9856 34.5583 21.0189 34.6608 21.0815 34.7451C21.1441 34.8294 21.2326 34.8908 21.3335 34.92L24.0002 35.7333C24.2001 36.3863 24.4682 37.0165 24.8002 37.6133L23.4668 40.1466C23.4166 40.2413 23.3985 40.3497 23.4153 40.4556C23.4322 40.5614 23.483 40.6589 23.5602 40.7333L25.5468 42.6666C25.6239 42.7398 25.722 42.7869 25.8273 42.8012C25.9326 42.8156 26.0397 42.7965 26.1335 42.7466L28.6268 41.4133C29.2202 41.7324 29.846 41.9872 30.4935 42.1733L31.2935 44.9066C31.3271 45.0074 31.3915 45.0952 31.4776 45.1574C31.5637 45.2196 31.6673 45.2531 31.7735 45.2533H34.5068C34.6108 45.2504 34.7114 45.2156 34.7948 45.1535C34.8783 45.0915 34.9407 45.0053 34.9735 44.9066L35.7735 42.1733C36.4133 41.9895 37.0305 41.7346 37.6135 41.4133L40.1335 42.7466C40.2273 42.7965 40.3345 42.8156 40.4397 42.8012C40.545 42.7869 40.6431 42.7398 40.7202 42.6666L42.6668 40.7333C42.74 40.6562 42.7871 40.5581 42.8015 40.4529C42.8158 40.3476 42.7967 40.2405 42.7469 40.1466L41.4135 37.64C41.7325 37.0558 41.9873 36.4389 42.1735 35.8L44.8402 34.9866C44.9404 34.9544 45.0284 34.8925 45.0927 34.8092C45.157 34.7259 45.1944 34.625 45.2002 34.52V31.76C45.2034 31.6633 45.1803 31.5676 45.1334 31.483C45.0864 31.3985 45.0173 31.3283 44.9335 31.28ZM33.1602 37.5733C32.2788 37.5759 31.4165 37.317 30.6824 36.8293C29.9483 36.3415 29.3755 35.6469 29.0363 34.8334C28.6972 34.0199 28.6071 33.1241 28.7775 32.2594C28.9478 31.3946 29.3709 30.5999 29.9931 29.9757C30.6154 29.3516 31.4089 28.9261 32.2731 28.7532C33.1374 28.5803 34.0335 28.6677 34.848 29.0044C35.6625 29.341 36.3588 29.9118 36.8487 30.6444C37.3387 31.3771 37.6002 32.2386 37.6002 33.12C37.6002 34.2987 37.1328 35.4295 36.3005 36.2642C35.4683 37.099 34.339 37.5698 33.1602 37.5733Z" fill="white"/>
</g>
<defs>
<clipPath id="clip0_680_80">
<rect width="48" height="48" fill="white"/>
</clipPath>
</defs>
</svg>
