<svg width="38" height="35" viewBox="0 0 38 35" fill="none" xmlns="http://www.w3.org/2000/svg">
<path d="M19 33.8334L18.05 33.1042C13.775 30.1875 0 19.6875 0 10.6459C0 5.54171 4.59167 1.45837 10.2917 1.45837C13.775 1.45837 17.1 3.06254 19 5.68754C20.9 3.06254 24.225 1.45837 27.7083 1.45837C33.4083 1.45837 38 5.54171 38 10.6459C38 19.8334 24.225 30.1875 19.95 33.25L19 33.8334ZM10.2917 4.22921C6.33333 4.22921 3.16667 7.00004 3.16667 10.5C3.16667 16.4792 11.2417 24.3542 19 30.0417C26.7583 24.3542 34.8333 16.4792 34.8333 10.5C34.8333 7.00004 31.6667 4.22921 27.7083 4.22921C25.175 4.22921 22.9583 5.39587 21.6917 7.14587L19 11.0834L16.3083 7.29171C15.0417 5.39587 12.825 4.22921 10.2917 4.22921Z" fill="#06406A"/>
</svg>
