<svg width="170" viewBox="20 0 340 70" fill="none" xmlns="http://www.w3.org/2000/svg">
<path d="M59.277 43H56.877V52.6C55.469 53.4 53.405 54.12 50.685 54.76C47.997 55.368 45.085 55.672 41.949 55.672C35.965 55.672 31.277 54.104 27.885 50.968C24.493 47.8 22.797 42.92 22.797 36.328C22.797 29.576 24.477 24.664 27.837 21.592C31.229 18.52 36.061 16.984 42.333 16.984C45.373 16.984 48.221 17.304 50.877 17.944C53.533 18.584 55.533 19.304 56.877 20.104V31.576H44.877V29.32C44.877 27.976 44.589 27.016 44.013 26.44C43.469 25.832 42.589 25.528 41.373 25.528C40.157 25.528 39.261 25.832 38.685 26.44C38.141 27.016 37.869 27.976 37.869 29.32V43.336C37.869 44.68 38.141 45.656 38.685 46.264C39.261 46.84 40.157 47.128 41.373 47.128C42.589 47.128 43.469 46.84 44.013 46.264C44.589 45.656 44.877 44.68 44.877 43.336V43H42.285V35.848H59.277V43ZM74.8399 55.672C70.2959 55.672 66.7439 54.488 64.1839 52.12C61.6239 49.72 60.3439 46.232 60.3439 41.656C60.3439 37.08 61.6239 33.608 64.1839 31.24C66.7439 28.84 70.2959 27.64 74.8399 27.64C79.3519 27.64 82.5999 28.824 84.5839 31.192C86.5999 33.528 87.6079 36.44 87.6079 39.928V43.384H72.0559V43.672C72.0559 44.856 72.4079 45.736 73.1119 46.312C73.8159 46.856 74.9839 47.128 76.6159 47.128C78.5679 47.128 80.4239 46.984 82.1839 46.696C83.9439 46.408 85.4799 46.04 86.7919 45.592V53.272C85.6719 53.88 84.0239 54.44 81.8479 54.952C79.7039 55.432 77.3679 55.672 74.8399 55.672ZM77.6239 38.104V37.528C77.6239 36.44 77.3839 35.656 76.9039 35.176C76.4559 34.696 75.7679 34.456 74.8399 34.456C73.9119 34.456 73.2079 34.712 72.7279 35.224C72.2799 35.704 72.0559 36.472 72.0559 37.528V38.104H77.6239ZM103.34 55.672C98.7959 55.672 95.2439 54.488 92.6839 52.12C90.1239 49.72 88.8439 46.232 88.8439 41.656C88.8439 37.08 90.1239 33.608 92.6839 31.24C95.2439 28.84 98.7959 27.64 103.34 27.64C107.948 27.64 111.516 28.856 114.044 31.288C116.572 33.688 117.836 37.144 117.836 41.656C117.836 46.232 116.556 49.72 113.996 52.12C111.436 54.488 107.884 55.672 103.34 55.672ZM103.34 47.128C104.268 47.128 104.956 46.888 105.404 46.408C105.884 45.896 106.124 45.112 106.124 44.056V39.256C106.124 38.2 105.884 37.432 105.404 36.952C104.956 36.44 104.268 36.184 103.34 36.184C102.412 36.184 101.708 36.44 101.228 36.952C100.78 37.432 100.556 38.2 100.556 39.256V44.056C100.556 45.112 100.78 45.896 101.228 46.408C101.708 46.888 102.412 47.128 103.34 47.128Z" fill="#06406A"/>
<path d="M172.404 25.528H170.004V47.128H172.404V55H154.26V47.128H156.564V30.328L148.404 55H141.3L132.9 30.568V47.128H135.204V55H119.46V47.128H121.86V25.528H119.46V17.656H141.444L146.436 32.632L151.236 17.656H172.404V25.528ZM202.192 47.128V55H189.52V51.736C188.816 52.76 187.824 53.672 186.544 54.472C185.296 55.272 183.76 55.672 181.936 55.672C179.536 55.672 177.648 55.032 176.272 53.752C174.896 52.472 174.208 50.664 174.208 48.328C174.208 42.28 179.344 39.176 189.616 39.016C189.52 37.928 189.104 37.192 188.368 36.808C187.632 36.392 186.384 36.184 184.624 36.184C183.184 36.184 181.632 36.344 179.968 36.664C178.336 36.952 176.832 37.352 175.456 37.864V29.032C177.152 28.616 178.992 28.28 180.976 28.024C182.96 27.768 184.896 27.64 186.784 27.64C191.552 27.64 194.96 28.504 197.008 30.232C199.056 31.96 200.08 34.632 200.08 38.248V47.128H202.192ZM189.52 43.768C188.08 43.768 186.96 43.96 186.16 44.344C185.392 44.728 185.008 45.368 185.008 46.264C185.008 46.808 185.168 47.256 185.488 47.608C185.84 47.928 186.32 48.088 186.928 48.088C187.76 48.088 188.4 47.736 188.848 47.032C189.296 46.328 189.52 45.336 189.52 44.056V43.768ZM224.235 27.64C224.875 27.64 225.483 27.704 226.059 27.832C226.635 27.96 227.115 28.12 227.499 28.312V37.48C226.187 36.936 224.779 36.664 223.275 36.664C221.259 36.664 219.707 37.192 218.619 38.248C217.531 39.304 216.987 40.872 216.987 42.952V47.128H221.307V55H203.835V47.128H205.947V36.184H203.835V28.312H216.987V31.816C217.883 30.472 218.907 29.448 220.059 28.744C221.211 28.008 222.603 27.64 224.235 27.64ZM257.996 47.128H260.06V55H248.3L243.356 45.784H242.204V55H229.052V47.128H231.164V25.528H229.052V17.656H242.204V37.144H243.356L249.308 28.312H259.436V36.184H257.468L253.388 40.744L257.996 47.128ZM275.887 55.672C271.343 55.672 267.791 54.488 265.231 52.12C262.671 49.72 261.391 46.232 261.391 41.656C261.391 37.08 262.671 33.608 265.231 31.24C267.791 28.84 271.343 27.64 275.887 27.64C280.399 27.64 283.647 28.824 285.631 31.192C287.647 33.528 288.655 36.44 288.655 39.928V43.384H273.103V43.672C273.103 44.856 273.455 45.736 274.159 46.312C274.863 46.856 276.031 47.128 277.663 47.128C279.615 47.128 281.471 46.984 283.231 46.696C284.991 46.408 286.527 46.04 287.839 45.592V53.272C286.719 53.88 285.071 54.44 282.895 54.952C280.751 55.432 278.415 55.672 275.887 55.672ZM278.671 38.104V37.528C278.671 36.44 278.431 35.656 277.951 35.176C277.503 34.696 276.815 34.456 275.887 34.456C274.959 34.456 274.255 34.712 273.775 35.224C273.327 35.704 273.103 36.472 273.103 37.528V38.104H278.671ZM301.939 55.672C298.547 55.672 295.987 54.856 294.259 53.224C292.563 51.56 291.715 48.776 291.715 44.872V36.184H289.603V28.312C290.819 28.312 291.731 28.008 292.339 27.4C292.947 26.76 293.251 25.896 293.251 24.808V22.648H303.427V28.312H309.907V36.184H303.427V44.056C303.427 45.112 303.651 45.896 304.099 46.408C304.579 46.888 305.283 47.128 306.211 47.128C307.427 47.128 308.755 46.984 310.195 46.696V54.232C309.299 54.584 308.083 54.904 306.547 55.192C305.043 55.512 303.507 55.672 301.939 55.672Z" fill="#4690FF"/>
</svg>
