<svg width="230" height="230" viewBox="0 0 230 230" fill="none" xmlns="http://www.w3.org/2000/svg">
<rect x="0.5" y="0.500137" width="229" height="229" rx="9.5" fill="#EBEBEB" stroke="#E2E2E2"/>
<path fill-rule="evenodd" clip-rule="evenodd" d="M63.4917 33.7668H149.339L183.678 66.2602V179.987C183.678 188.96 175.991 196.234 166.508 196.234H63.4917C54.0093 196.234 46.3223 188.96 46.3223 179.987V50.0135C46.3223 41.0407 54.0093 33.7668 63.4917 33.7668ZM142.227 50.0135H63.4917V179.987H166.508V72.9898H142.227V50.0135ZM140.754 131.247C136.013 131.247 132.169 127.61 132.169 123.124C132.169 118.637 136.013 115 140.754 115C145.495 115 149.339 118.637 149.339 123.124C149.339 127.61 145.495 131.247 140.754 131.247ZM80.6611 147.494L107.019 123.124L132.169 147.494L140.754 139.37L149.339 147.494V163.74H80.6611V147.494Z" fill="#747474"/>
</svg>
