<svg width="29" viewBox="0 0 49 45" fill="none" xmlns="http://www.w3.org/2000/svg">
<path d="M0 18.315C0 15.855 0.522667 13.485 1.568 11.205C2.61333 8.925 4.03433 6.975 5.831 5.355C7.62767 3.735 9.751 2.445 12.201 1.485C14.651 0.525 17.2317 0.03 19.943 0C22.6543 0 25.235 0.495 27.685 1.485C30.135 2.475 32.2583 3.765 34.055 5.355C35.8517 6.945 37.2727 8.895 38.318 11.205C39.3633 13.515 39.886 15.885 39.886 18.315C39.886 21.705 38.8733 24.9 36.848 27.9L47.677 37.8C48.559 38.64 49 39.645 49 40.815C49 41.985 48.559 42.975 47.677 43.785C46.795 44.595 45.7007 45 44.394 45C43.0873 45 42.0093 44.595 41.16 43.785L30.38 33.885C27.1133 35.715 23.6343 36.63 19.943 36.63C17.2317 36.63 14.651 36.15 12.201 35.19C9.751 34.23 7.62767 32.925 5.831 31.275C4.03433 29.625 2.61333 27.69 1.568 25.47C0.522667 23.25 0 20.865 0 18.315ZM6.125 18.315C6.125 20.625 6.74567 22.755 7.987 24.705C9.22833 26.655 10.9107 28.185 13.034 29.295C15.1573 30.405 17.4603 30.975 19.943 31.005C21.805 31.005 23.5853 30.675 25.284 30.015C26.9827 29.355 28.4527 28.455 29.694 27.315C30.9353 26.175 31.9153 24.825 32.634 23.265C33.3527 21.705 33.7283 20.055 33.761 18.315C33.7937 16.575 33.418 14.925 32.634 13.365C31.85 11.805 30.87 10.47 29.694 9.36C28.518 8.25 27.048 7.35 25.284 6.66C23.52 5.97 21.7397 5.625 19.943 5.625C17.4603 5.625 15.1573 6.195 13.034 7.335C10.9107 8.475 9.22833 10.02 7.987 11.97C6.74567 13.92 6.125 16.035 6.125 18.315Z" fill="#06406A"/>
</svg>
