<svg width="31" height="36" viewBox="0 0 31 36" fill="none" xmlns="http://www.w3.org/2000/svg">
<path d="M11.5556 0.785156C10.6237 0.785156 9.86814 1.53318 9.86814 2.4559C9.86814 3.37862 10.6237 4.12665 11.5556 4.12665V0.785156ZM19.0144 4.12665C19.9463 4.12665 20.7019 3.37862 20.7019 2.4559C20.7019 1.53318 19.9463 0.785156 19.0144 0.785156V4.12665ZM12.585 29.1878C12.585 28.2652 11.8295 27.5171 10.8975 27.5171C9.96554 27.5171 9.21002 28.2652 9.21002 29.1878H12.585ZM21.36 29.1878C21.36 28.2652 20.6045 27.5171 19.6725 27.5171C18.7406 27.5171 17.985 28.2652 17.985 29.1878H21.36ZM15.285 6.52361L15.3347 4.8536C15.3021 4.85264 15.2697 4.85262 15.2371 4.85354L15.285 6.52361ZM26.2407 16.3966L27.9219 16.2529C27.919 16.2206 27.9154 16.1885 27.9107 16.1565L26.2407 16.3966ZM27.557 23.0796L25.9444 23.5721C25.9993 23.7481 26.083 23.9141 26.1926 24.0629L27.557 23.0796ZM28.0679 27.3389L29.5347 28.1654C29.57 28.1034 29.6015 28.0395 29.629 27.9738L28.0679 27.3389ZM24.9528 29.1812V30.8521L24.9742 30.8517L24.9528 29.1812ZM5.61279 29.1812L5.59146 30.8519H5.61279V29.1812ZM2.49766 27.3389L0.937286 27.9751C0.964443 28.0404 0.995763 28.1039 1.03104 28.1654L2.49766 27.3389ZM3.00002 23.0863L4.36719 24.0656C4.47528 23.9179 4.55814 23.7532 4.6125 23.5788L3.00002 23.0863ZM4.31627 16.4033L2.64614 16.164C2.64153 16.1959 2.63781 16.2278 2.63502 16.2596L4.31627 16.4033ZM11.5556 4.12665H19.0144V0.785156H11.5556V4.12665ZM9.21002 29.1878C9.21002 32.5311 11.8898 35.3139 15.285 35.3139V31.9724C13.8338 31.9724 12.585 30.7659 12.585 29.1878H9.21002ZM15.285 35.3139C18.6803 35.3139 21.36 32.5311 21.36 29.1878H17.985C17.985 30.7659 16.7363 31.9724 15.285 31.9724V35.3139ZM15.2353 8.19363C19.911 8.33 23.8699 11.8579 24.5705 16.6368L27.9107 16.1565C26.9832 9.83212 21.7092 5.03952 15.3347 4.8536L15.2353 8.19363ZM24.5593 16.5403C24.7676 18.9281 25.2318 21.2861 25.9444 23.5721L29.1693 22.5871C28.5278 20.5285 28.1093 18.4044 27.9219 16.2529L24.5593 16.5403ZM26.1926 24.0629C26.7479 24.8181 26.8714 25.8259 26.5071 26.704L29.629 27.9738C30.4358 26.0292 30.1706 23.7956 28.9211 22.0963L26.1926 24.0629ZM26.6014 26.5124C26.243 27.1362 25.6035 27.5022 24.9317 27.5106L24.9742 30.8517C26.8721 30.8281 28.5976 29.7953 29.5347 28.1654L26.6014 26.5124ZM24.9528 27.5104H5.61279V30.8519L24.9528 30.8521V27.5104ZM5.63409 27.5106C4.9622 27.5022 4.32279 27.1362 3.96426 26.5124L1.03104 28.1654C1.9681 29.7953 3.69356 30.8283 5.59146 30.8519L5.63409 27.5106ZM4.05801 26.7027C3.69365 25.8267 3.81515 24.821 4.36719 24.0656L1.63287 22.107C0.391031 23.8063 0.130391 26.0353 0.937286 27.9751L4.05801 26.7027ZM4.6125 23.5788C5.32497 21.2928 5.78934 18.9348 5.99751 16.547L2.63502 16.2596C2.44744 18.4111 2.02908 20.5352 1.38753 22.5937L4.6125 23.5788ZM5.9864 16.6425C6.68543 11.8572 10.6512 8.32512 15.3329 8.19369L15.2371 4.85354C8.85427 5.03275 3.57127 9.8312 2.64614 16.164L5.9864 16.6425Z" fill="white"/>
</svg>
