<svg width="54" height="54" viewBox="0 0 54 54" fill="none" xmlns="http://www.w3.org/2000/svg">
<path d="M22.5556 10.7852C21.6237 10.7852 20.8681 11.5332 20.8681 12.4559C20.8681 13.3786 21.6237 14.1266 22.5556 14.1266V10.7852ZM30.0144 14.1266C30.9463 14.1266 31.7019 13.3786 31.7019 12.4559C31.7019 11.5332 30.9463 10.7852 30.0144 10.7852V14.1266ZM23.585 39.1878C23.585 38.2652 22.8295 37.5171 21.8975 37.5171C20.9655 37.5171 20.21 38.2652 20.21 39.1878H23.585ZM32.36 39.1878C32.36 38.2652 31.6045 37.5171 30.6725 37.5171C29.7406 37.5171 28.985 38.2652 28.985 39.1878H32.36ZM26.285 16.5236L26.3347 14.8536C26.3021 14.8526 26.2697 14.8526 26.2371 14.8535L26.285 16.5236ZM37.2407 26.3966L38.9219 26.2529C38.919 26.2206 38.9154 26.1885 38.9107 26.1565L37.2407 26.3966ZM38.557 33.0796L36.9444 33.5721C36.9993 33.7481 37.083 33.9141 37.1926 34.0629L38.557 33.0796ZM39.0679 37.3389L40.5347 38.1654C40.57 38.1034 40.6015 38.0395 40.629 37.9738L39.0679 37.3389ZM35.9528 39.1812V40.8521L35.9742 40.8517L35.9528 39.1812ZM16.6128 39.1812L16.5915 40.8519H16.6128V39.1812ZM13.4977 37.3389L11.9373 37.9751C11.9644 38.0404 11.9958 38.1039 12.031 38.1654L13.4977 37.3389ZM14 33.0863L15.3672 34.0656C15.4753 33.9179 15.5581 33.7532 15.6125 33.5788L14 33.0863ZM15.3163 26.4033L13.6461 26.164C13.6415 26.1959 13.6378 26.2278 13.635 26.2596L15.3163 26.4033ZM22.5556 14.1266H30.0144V10.7852H22.5556V14.1266ZM20.21 39.1878C20.21 42.5311 22.8898 45.3139 26.285 45.3139V41.9724C24.8338 41.9724 23.585 40.7659 23.585 39.1878H20.21ZM26.285 45.3139C29.6803 45.3139 32.36 42.5311 32.36 39.1878H28.985C28.985 40.7659 27.7363 41.9724 26.285 41.9724V45.3139ZM26.2353 18.1936C30.911 18.33 34.8699 21.8579 35.5705 26.6368L38.9107 26.1565C37.9832 19.8321 32.7092 15.0395 26.3347 14.8536L26.2353 18.1936ZM35.5593 26.5403C35.7676 28.9281 36.2318 31.2861 36.9444 33.5721L40.1693 32.5871C39.5278 30.5285 39.1093 28.4044 38.9219 26.2529L35.5593 26.5403ZM37.1926 34.0629C37.7479 34.8181 37.8714 35.8259 37.5071 36.704L40.629 37.9738C41.4358 36.0292 41.1706 33.7956 39.9211 32.0963L37.1926 34.0629ZM37.6014 36.5124C37.243 37.1362 36.6035 37.5022 35.9317 37.5106L35.9742 40.8517C37.8721 40.8281 39.5976 39.7953 40.5347 38.1654L37.6014 36.5124ZM35.9528 37.5104H16.6128V40.8519L35.9528 40.8521V37.5104ZM16.6341 37.5106C15.9622 37.5022 15.3228 37.1362 14.9643 36.5124L12.031 38.1654C12.9681 39.7953 14.6936 40.8283 16.5915 40.8519L16.6341 37.5106ZM15.058 36.7027C14.6936 35.8267 14.8151 34.821 15.3672 34.0656L12.6329 32.107C11.391 33.8063 11.1304 36.0353 11.9373 37.9751L15.058 36.7027ZM15.6125 33.5788C16.325 31.2928 16.7893 28.9348 16.9975 26.547L13.635 26.2596C13.4474 28.4111 13.0291 30.5352 12.3875 32.5937L15.6125 33.5788ZM16.9864 26.6425C17.6854 21.8572 21.6512 18.3251 26.3329 18.1937L26.2371 14.8535C19.8543 15.0328 14.5713 19.8312 13.6461 26.164L16.9864 26.6425Z" fill="white"/>
</svg>
