<svg width="46" height="51" viewBox="0 0 46 51" fill="none" xmlns="http://www.w3.org/2000/svg">
<path d="M23 7.07959C13.4766 7.07959 5.75 15.4508 5.75 25.7688C5.75 36.0868 13.4766 44.458 23 44.458C32.5234 44.458 40.25 36.0868 40.25 25.7688C40.25 15.4508 32.5234 7.07959 23 7.07959ZM22.4609 36.6708C22.1055 36.6708 21.7581 36.5566 21.4626 36.3427C21.1672 36.1288 20.9368 35.8247 20.8008 35.469C20.6648 35.1133 20.6293 34.7219 20.6986 34.3442C20.7679 33.9666 20.9391 33.6197 21.1904 33.3474C21.4417 33.0752 21.7618 32.8897 22.1104 32.8146C22.4589 32.7395 22.8202 32.7781 23.1486 32.9254C23.4769 33.0728 23.7575 33.3223 23.955 33.6424C24.1524 33.9626 24.2578 34.339 24.2578 34.724C24.2578 35.2403 24.0685 35.7355 23.7315 36.1006C23.3945 36.4657 22.9375 36.6708 22.4609 36.6708ZM25.4653 26.7422C24.0089 27.8012 23.8086 28.7717 23.8086 29.6624C23.8086 30.0238 23.6761 30.3704 23.4402 30.626C23.2043 30.8815 22.8844 31.0251 22.5508 31.0251C22.2172 31.0251 21.8973 30.8815 21.6614 30.626C21.4255 30.3704 21.293 30.0238 21.293 29.6624C21.293 27.5296 22.1986 25.834 24.062 24.4781C25.7941 23.2185 26.7734 22.4203 26.7734 20.6653C26.7734 19.4719 26.1445 18.5657 24.8427 17.895C24.5363 17.7373 23.8544 17.5835 23.0153 17.5942C21.9623 17.6088 21.1447 17.8814 20.5149 18.4304C19.3272 19.466 19.2266 20.5932 19.2266 20.6098C19.2186 20.7887 19.1782 20.9642 19.1076 21.1263C19.037 21.2883 18.9377 21.4337 18.8153 21.5541C18.6928 21.6746 18.5497 21.7677 18.3941 21.8282C18.2384 21.8888 18.0733 21.9155 17.9081 21.9068C17.7429 21.8982 17.5809 21.8544 17.4314 21.778C17.2818 21.7015 17.1476 21.5939 17.0365 21.4612C16.9253 21.3286 16.8393 21.1735 16.7835 21.0049C16.7276 20.8362 16.703 20.6573 16.7109 20.4784C16.7208 20.2418 16.8727 18.1111 18.9364 16.3122C20.0064 15.3797 21.3675 14.895 22.9793 14.8736C24.1204 14.859 25.1922 15.0682 25.919 15.4401C28.0941 16.5546 29.2891 18.4128 29.2891 20.6653C29.2891 23.9583 27.2577 25.4368 25.4653 26.7422Z" fill="white"/>
</svg>
