<svg width="37" height="37" viewBox="0 0 37 37" fill="none" xmlns="http://www.w3.org/2000/svg">
<path d="M18.5 0C8.28646 0 0 8.28646 0 18.5C0 28.7135 8.28646 37 18.5 37C28.7135 37 37 28.7135 37 18.5C37 8.28646 28.7135 0 18.5 0ZM17.9219 29.2917C17.5407 29.2917 17.1682 29.1786 16.8512 28.9669C16.5343 28.7551 16.2873 28.4542 16.1415 28.102C15.9956 27.7499 15.9575 27.3624 16.0318 26.9886C16.1062 26.6148 16.2897 26.2714 16.5592 26.0019C16.8287 25.7324 17.1721 25.5489 17.5459 25.4745C17.9197 25.4002 18.3072 25.4383 18.6593 25.5842C19.0115 25.73 19.3124 25.977 19.5242 26.294C19.7359 26.6109 19.849 26.9834 19.849 27.3646C19.849 27.8757 19.6459 28.3658 19.2845 28.7272C18.9231 29.0886 18.433 29.2917 17.9219 29.2917ZM21.144 19.4635C19.5821 20.5119 19.3672 21.4725 19.3672 22.3542C19.3672 22.7119 19.2251 23.055 18.9721 23.308C18.7191 23.561 18.376 23.7031 18.0182 23.7031C17.6605 23.7031 17.3174 23.561 17.0644 23.308C16.8114 23.055 16.6693 22.7119 16.6693 22.3542C16.6693 20.243 17.6405 18.5646 19.6389 17.2223C21.4966 15.9755 22.5469 15.1854 22.5469 13.4482C22.5469 12.2668 21.8724 11.3698 20.4762 10.7059C20.1477 10.5498 19.4163 10.3976 18.5164 10.4082C17.3871 10.4226 16.5103 10.6924 15.8348 11.2359C14.561 12.2611 14.4531 13.3768 14.4531 13.3932C14.4446 13.5704 14.4012 13.7441 14.3256 13.9045C14.2499 14.0649 14.1433 14.2088 14.012 14.328C13.8807 14.4473 13.7272 14.5395 13.5603 14.5994C13.3934 14.6593 13.2163 14.6857 13.0391 14.6771C12.862 14.6686 12.6882 14.6253 12.5279 14.5496C12.3675 14.4739 12.2235 14.3674 12.1043 14.2361C11.9851 14.1048 11.8929 13.9513 11.833 13.7843C11.7731 13.6174 11.7467 13.4403 11.7552 13.2632C11.7658 13.029 11.9286 10.9198 14.1419 9.13919C15.2895 8.21612 16.7492 7.73628 18.4778 7.71508C19.7015 7.70063 20.851 7.90779 21.6305 8.27586C23.9633 9.37911 25.2448 11.2185 25.2448 13.4482C25.2448 16.7078 23.0662 18.1714 21.144 19.4635Z" fill="white"/>
</svg>
