<svg width="26" height="44" viewBox="0 0 42 44" fill="none" xmlns="http://www.w3.org/2000/svg">
<path d="M21.0035 33.0029C26.803 33.0029 31.5045 28.0775 31.5045 22.0018C31.5045 15.926 26.803 11.0006 21.0035 11.0006C15.2039 11.0006 10.5024 15.926 10.5024 22.0018C10.5024 28.0775 15.2039 33.0029 21.0035 33.0029Z" fill="#063E67"/>
<path fill-rule="evenodd" clip-rule="evenodd" d="M7.87594 21.9961C7.87594 20.476 6.70187 19.246 5.25085 19.246H2.6251C1.17407 19.246 0 20.476 0 21.9961C0 23.5163 1.17407 24.7463 2.6251 24.7463H5.25019C6.70187 24.7463 7.87594 23.5163 7.87594 21.9961Z" fill="#063E67"/>
<path fill-rule="evenodd" clip-rule="evenodd" d="M8.00923 31.7198L6.15066 33.6676C5.12491 34.7415 5.12491 36.4823 6.15066 37.5562C7.17576 38.6301 8.83745 38.6301 9.86321 37.5562L11.7224 35.6091C12.7475 34.5352 12.7475 32.7937 11.7224 31.7198C10.696 30.6452 9.03499 30.6452 8.00923 31.7198Z" fill="#063E67"/>
<path fill-rule="evenodd" clip-rule="evenodd" d="M21.0047 35.7478C19.5537 35.7478 18.3796 36.9778 18.3796 38.498V41.2488C18.3796 42.7689 19.5537 43.9989 21.0047 43.9989C22.4558 43.9989 23.6298 42.7689 23.6298 41.2488L23.6272 38.498C23.6298 36.9778 22.4531 35.7478 21.0047 35.7478Z" fill="#063E67"/>
<path fill-rule="evenodd" clip-rule="evenodd" d="M33.9936 31.7228C32.9705 30.6462 31.3088 30.6462 30.2837 31.7201C29.2586 32.794 29.2586 34.5355 30.2837 35.6094L32.1403 37.5538C33.1654 38.6332 34.8271 38.6277 35.8522 37.5538C36.8773 36.4799 36.8799 34.7418 35.8522 33.6651L33.9936 31.7228Z" fill="#063E67"/>
<path fill-rule="evenodd" clip-rule="evenodd" d="M39.3805 19.246L36.7495 19.2515C35.3037 19.246 34.1297 20.476 34.1297 21.9961C34.1244 23.5163 35.3037 24.7463 36.7495 24.7463H39.3753C40.8315 24.7518 42.0003 23.5163 42.0003 21.9961C42.003 20.4788 40.8315 19.246 39.3805 19.246Z" fill="#063E67"/>
<path fill-rule="evenodd" clip-rule="evenodd" d="M33.9936 12.2751L35.8496 10.3301C36.8826 9.25346 36.8747 7.51538 35.8496 6.44078C34.8264 5.36342 33.1654 5.36342 32.1403 6.43803L30.2837 8.38786C29.2586 9.45696 29.2586 11.1971 30.2837 12.2717C31.3036 13.3525 32.9705 13.347 33.9936 12.2751Z" fill="#063E67"/>
<path fill-rule="evenodd" clip-rule="evenodd" d="M21.0047 8.24486C22.4531 8.25586 23.6298 7.01487 23.6298 5.50025V2.75013C23.6298 1.22451 22.4558 1.83751e-05 21.0047 1.83751e-05C19.5537 -0.00548185 18.3796 1.22451 18.3796 2.74532L18.3849 5.50093C18.3796 7.01487 19.5537 8.24486 21.0047 8.24486Z" fill="#063E67"/>
<path fill-rule="evenodd" clip-rule="evenodd" d="M8.01368 12.2738C9.03419 13.3477 10.6906 13.3477 11.719 12.2711C12.752 11.2047 12.7467 9.45908 11.7243 8.38722L9.86766 6.44289C8.83731 5.36278 7.18087 5.37103 6.15512 6.44289C5.12149 7.51475 5.12149 9.25488 6.14724 10.3295L8.01368 12.2738Z" fill="#063E67"/>
</svg>
